<?xml version="1.0" encoding="UTF-8"?>
<svg id="Layer_2" data-name="Layer 2" xmlns="http://www.w3.org/2000/svg" viewBox="0 0 701.65 307.55">
  <defs>
    <style>
      .cls-1 {
        stroke: "currentColor";
      }

      .cls-1, .cls-2 {
        fill: none;
      }

      .cls-1, .cls-2, .cls-3 {
        stroke-miterlimit: 10;
      }

      .cls-2, .cls-3 {
        stroke: "currentColor";
      }

      .cls-3, .cls-4 {
        fill: "currentColor;
      }
    </style>
  </defs>
  <g id="Layer_1-2" data-name="Layer 1">
    <g>
      <path class="cls-3" d="M430.97,295.48l-19.08-19.93c-.6-.62-.92-1.46-.9-2.33l.79-36.07c.06-2.9,3.61-4.28,5.61-2.18l54.98,57.43c2.03,2.12.45,5.63-2.48,5.51l-36.69-1.43c-.84-.03-1.64-.39-2.23-1Z"/>
      <path class="cls-3" d="M389.84,74.37l-19.26-19.76c-.6-.62-1.43-.97-2.29-.98l-36.08-.46c-2.9-.04-4.4,3.46-2.38,5.54l55.5,56.93c2.05,2.1,5.61.64,5.59-2.29l-.16-36.72c0-.85-.34-1.66-.93-2.26Z"/>
      <path class="cls-3" d="M304.46,45.29h-41.07c-7.49,0-11.29,9.02-6.06,14.38l103.33,105.83h21.05l9.31-9.53v-22.02l-86.56-88.66ZM262.93,56.31c-1.84,0-3.33-1.49-3.33-3.33s1.49-3.33,3.33-3.33,3.33,1.49,3.33,3.33-1.49,3.33-3.33,3.33Z"/>
      <path class="cls-3" d="M381.43,186.78h-20.5l-103.4,105.89c-5.23,5.36-1.44,14.38,6.06,14.38h41.09l86.34-88.43v-22.03l-9.59-9.82ZM264.35,301.53c-1.84,0-3.33-1.49-3.33-3.33s1.49-3.33,3.33-3.33,3.33,1.49,3.33,3.33-1.49,3.33-3.33,3.33Z"/>
      <path class="cls-3" d="M540.16,45.29h-41.08l-86.79,88.88v21.56l9.53,9.77h21.05l103.33-105.83c5.23-5.36,1.44-14.38-6.06-14.38ZM536.93,56.31c-1.84,0-3.33-1.49-3.33-3.33s1.49-3.33,3.33-3.33,3.33,1.49,3.33,3.33-1.49,3.33-3.33,3.33Z"/>
      <g>
        <path class="cls-3" d="M640.22,202.98l-34.86-36.08c-2.78-2.88-7.66-.91-7.66,3.1v108.64c0,3.97,4.8,5.96,7.6,3.15l34.86-34.86c.84-.84,1.3-1.97,1.3-3.15v-37.7c0-1.15-.45-2.26-1.25-3.1ZM622.85,257.43c0,1.09-.43,2.14-1.21,2.91l-13.85,13.85c-2.59,2.59-7.03.76-7.03-2.91v-45.69c0-3.7,4.51-5.53,7.08-2.86l13.85,14.34c.74.77,1.16,1.79,1.16,2.86v17.5Z"/>
        <path class="cls-3" d="M682.41,127.79l16.77-17.68c1.32-1.39,2.03-3.24,1.97-5.15l-.66-24.91c-.17-6.42-8.01-9.43-12.43-4.77l-41.45,43.7c-4.46,4.7-.93,12.44,5.54,12.16l25.34-1.11c1.87-.08,3.63-.88,4.91-2.24Z"/>
        <path class="cls-3" d="M692.19,48.05c3.51,3.51,3.56,9.19.11,12.77l-50.83,52.62-13.46,13.92-30.31,31.38-.11.12-30.43-31.51-30.3-31.35c-3.45-3.57-3.41-9.26.11-12.77l15.05-15.05c1.71-1.71,4.03-2.67,6.44-2.67h5.93c2.47,0,4.84,1,6.55,2.78l20.08,20.79c3.58,3.71,9.52,3.71,13.1,0l39.53-40.92c1.72-1.78,4.08-2.78,6.55-2.78h35.52c2.42,0,4.74.96,6.45,2.67h0Z"/>
        <path class="cls-3" d="M640.21,139.99l-4.47-4.62c-1.73-1.79-4.59-1.81-6.35-.05l-18.39,18.39c-1.74,1.74-1.74,4.56,0,6.3l22.86,22.86c2.81,2.81,7.6.82,7.6-3.15v-36.63c0-1.16-.45-2.27-1.25-3.1ZM616.88,159.97c-1.84,0-3.33-1.49-3.33-3.33s1.49-3.33,3.33-3.33,3.33,1.49,3.33,3.33-1.49,3.33-3.33,3.33Z"/>
        <path class="cls-3" d="M633.86,258.62l-34.86,34.86c-.84.84-1.3,1.97-1.3,3.15v5.96c0,2.46,1.99,4.45,4.45,4.45h34.86c2.46,0,4.45-1.99,4.45-4.45v-40.82c0-3.97-4.8-5.96-7.6-3.15ZM636.87,268.83c-1.84,0-3.33-1.49-3.33-3.33s1.49-3.33,3.33-3.33,3.33,1.49,3.33,3.33-1.49,3.33-3.33,3.33Z"/>
      </g>
      <path class="cls-3" d="M545.99,292.67l-103.39-105.89h-20.49l-9.82,10.05v21.56l86.56,88.66h41.08c7.49,0,11.29-9.02,6.06-14.38ZM536.93,299.96c-1.84,0-3.33-1.49-3.33-3.33s1.49-3.33,3.33-3.33,3.33,1.49,3.33,3.33-1.49,3.33-3.33,3.33Z"/>
      <line class="cls-1" x1="245.55" y1="92.89" x2="245.55" y2="213.9"/>
      <circle class="cls-4" cx="402.25" cy="176.69" r="12.36"/>
      <g>
        <path class="cls-4" d="M250.6,276.79v20.17c0,5.57-4.52,10.09-10.09,10.09H50.79s-43.75-43.76-43.75-43.76l-.02-.02v-47.57c0-2.68,1.06-5.24,2.95-7.13l23.59-23.59c6.36-6.36,17.22-1.85,17.22,7.13v61.09c0,5.57,4.52,10.09,10.09,10.09h135.88c5.57,0,10.09-4.52,10.09-10.09h0c0-8.99,10.87-13.49,17.22-7.13l17.21,17.22,6.37,6.37c1.89,1.89,2.95,4.46,2.95,7.13Z"/>
        <path class="cls-3" d="M56.37,139.97v-40.82c0-2.46,1.99-4.45,4.45-4.45h34.86c2.46,0,4.45,1.99,4.45,4.45v5.96c0,1.18-.47,2.31-1.3,3.15l-34.86,34.86c-2.81,2.81-7.6.82-7.6-3.15Z"/>
        <path class="cls-3" d="M198.02,212.79v40.82c0,2.46-1.99,4.45-4.45,4.45h-34.86c-2.46,0-4.45-1.99-4.45-4.45v-5.96c0-1.18.47-2.31,1.3-3.15l34.86-34.86c2.81-2.81,7.6-.82,7.6,3.15Z"/>
        <path class="cls-4" d="M247.65,86.11l-37.85-37.86c-1.89-1.89-4.46-2.96-7.13-2.96H54.97c-2.68,0-5.24,1.06-7.13,2.95L9.98,86.11c-1.89,1.89-2.95,4.46-2.95,7.13v78.44c0,8.99,10.87,13.49,17.22,7.13l23.59-23.59c1.89-1.89,2.95-4.46,2.95-7.13v-48.94c0-5.57,4.52-10.09,10.09-10.09h135.88c5.57,0,10.09,4.52,10.09,10.09v116.19c0,2.68,1.06,5.24,2.95,7.13l23.58,23.58c6.35,6.35,17.22,1.85,17.22-7.13V93.24c0-2.68-1.06-5.24-2.95-7.13ZM15.23,95.68c-1.84,0-3.33-1.49-3.33-3.33s1.49-3.33,3.33-3.33,3.33,1.49,3.33,3.33-1.49,3.33-3.33,3.33ZM54.6,56.31c-1.84,0-3.33-1.49-3.33-3.33s1.49-3.33,3.33-3.33,3.33,1.49,3.33,3.33-1.49,3.33-3.33,3.33Z"/>
        <circle class="cls-4" cx="62.01" cy="252.75" r="5.9"/>
        <circle class="cls-4" cx="197.88" cy="100.13" r="5.9"/>
        <line class="cls-2" x1=".35" y1="213.9" x2="59.56" y2="154.7"/>
        <line class="cls-2" x1="2.92" y1="206.04" x2="30.88" y2="178.08"/>
      </g>
      <line class="cls-2" x1="530.69" y1="98.62" x2="593.63" y2="161.56"/>
      <line class="cls-2" x1="526.28" y1="103.03" x2="589.22" y2="165.97"/>
      <line class="cls-2" x1="521.87" y1="107.44" x2="584.81" y2="170.38"/>
      <line class="cls-2" x1="517.46" y1="111.85" x2="580.4" y2="174.79"/>
      <line class="cls-2" x1="513.05" y1="116.27" x2="575.98" y2="179.2"/>
      <line class="cls-2" x1="528.8" y1="141.03" x2="591.74" y2="203.96"/>
      <line class="cls-2" x1="524.39" y1="145.44" x2="587.33" y2="208.38"/>
      <line class="cls-2" x1="519.98" y1="149.85" x2="582.92" y2="212.79"/>
      <line class="cls-2" x1="515.57" y1="154.26" x2="578.5" y2="217.2"/>
      <line class="cls-2" x1="511.15" y1="158.67" x2="574.09" y2="221.61"/>
      <line class="cls-2" x1="486.12" y1="183.71" x2="549.06" y2="246.64"/>
      <line class="cls-2" x1="481.71" y1="188.12" x2="544.65" y2="251.06"/>
      <line class="cls-2" x1="477.3" y1="192.53" x2="540.24" y2="255.47"/>
      <line class="cls-2" x1="472.89" y1="196.94" x2="535.83" y2="259.88"/>
      <line class="cls-2" x1="468.47" y1="201.35" x2="531.41" y2="264.29"/>
      <line class="cls-2" x1="486.93" y1="142.11" x2="549.87" y2="205.05"/>
      <line class="cls-2" x1="482.52" y1="146.53" x2="545.46" y2="209.47"/>
      <line class="cls-2" x1="478.11" y1="150.94" x2="541.05" y2="213.88"/>
      <line class="cls-2" x1="473.7" y1="155.35" x2="536.64" y2="218.29"/>
      <line class="cls-2" x1="469.29" y1="159.76" x2="532.22" y2="222.7"/>
      <line class="cls-2" x1="345.84" y1="194.15" x2="274.39" y2="265.6"/>
      <line class="cls-2" x1="325.04" y1="208.32" x2="262.57" y2="270.79"/>
      <line class="cls-2" x1="602.46" y1="83.4" x2="684.3" y2="1.55"/>
      <line class="cls-2" x1="649.46" y1="42.48" x2="691.58" y2=".35"/>
      <line class="cls-2" x1="655.53" y1="42.48" x2="685.65" y2="12.36"/>
      <line class="cls-2" x1="661.61" y1="42.48" x2="680.37" y2="23.72"/>
      <line class="cls-2" x1="667.69" y1="42.48" x2="677.08" y2="33.09"/>
    </g>
  </g>
</svg>